<svg xmlns="http://www.w3.org/2000/svg" xmlns:xlink="http://www.w3.org/1999/xlink" width="500" zoomAndPan="magnify" viewBox="0 0 375 374.999991" height="500" preserveAspectRatio="xMidYMid meet" version="1.0"><defs><g/><clipPath id="0c7bb2d8ab"><path d="M 31 79.421875 L 344 79.421875 L 344 182 L 31 182 Z M 31 79.421875 " clip-rule="nonzero"/></clipPath><clipPath id="0c76ac7613"><path d="M 30.175781 79.421875 L 345.175781 79.421875 L 345.175781 185 L 30.175781 185 Z M 30.175781 79.421875 " clip-rule="nonzero"/></clipPath></defs><rect x="-37.5" width="450" fill="#ffffff" y="-37.499999" height="449.999989" fill-opacity="1"/><rect x="-37.5" width="450" fill="#ffffff" y="-37.499999" height="449.999989" fill-opacity="1"/><g clip-path="url(#0c7bb2d8ab)"><path fill="#000000" d="M 280.390625 79.734375 C 254.992188 79.890625 230.519531 87.378906 205.59375 90.371094 C 195.1875 91.621094 184.464844 91.925781 174.046875 90.765625 C 160.1875 89.21875 146.773438 85.117188 132.929688 83.277344 C 120.554688 81.636719 108.023438 79.917969 95.570312 79.851562 C 73.808594 79.730469 52.761719 86.152344 31.429688 89.621094 C 31.429688 95.507812 30.164062 103.058594 33.351562 107.195312 C 36.644531 111.460938 42.191406 115.363281 43.632812 121.140625 C 47.046875 134.851562 51.894531 148.289062 58.089844 161.171875 C 61.101562 167.433594 66.785156 171.800781 73.132812 174.804688 C 88.417969 182.046875 106.507812 183.109375 123.277344 180.835938 C 147.15625 177.589844 160.109375 160.699219 169.992188 141.394531 C 173.691406 133.546875 174.105469 124.492188 178.976562 117.320312 C 181.871094 113.0625 188.589844 114.855469 193.390625 114.839844 C 198.195312 114.824219 202.265625 122.355469 203.753906 127.367188 C 209.03125 145.109375 217.824219 163.933594 235.304688 173.230469 C 261.40625 187.113281 302.523438 184.515625 319.460938 159.480469 C 326.089844 149.679688 327.921875 137.792969 331.246094 126.699219 C 333.269531 119.945312 335.078125 111.894531 342.277344 108.179688 C 345.183594 106.679688 343.144531 100.703125 343.570312 97.226562 C 344.039062 93.4375 344.941406 90.089844 339.226562 89.347656 C 329.257812 88.046875 319.589844 84.101562 309.390625 82.765625 C 299.726562 81.5 290.253906 79.671875 280.390625 79.734375 Z M 112.496094 86.035156 C 119.703125 85.992188 126.882812 86.492188 133.886719 87.886719 C 175.636719 96.214844 176.480469 112.433594 159.292969 145.964844 C 145.289062 173.285156 116.277344 180.132812 87.042969 173.582031 C 73.570312 170.566406 64.355469 161.695312 60.007812 149.550781 C 55.421875 136.730469 51.953125 123.109375 52.738281 109.636719 C 53.789062 91.59375 75.433594 89.058594 90.929688 87.414062 C 98.042969 86.660156 105.28125 86.078125 112.492188 86.035156 Z M 264.925781 86.035156 C 272.136719 86.078125 279.378906 86.660156 286.488281 87.414062 C 301.984375 89.058594 323.628906 91.59375 324.679688 109.636719 C 325.464844 123.109375 321.996094 136.730469 317.410156 149.550781 C 313.0625 161.695312 303.851562 170.566406 290.375 173.585938 C 261.140625 180.132812 232.132812 173.289062 218.125 145.964844 C 200.9375 112.433594 201.78125 96.214844 243.53125 87.890625 C 250.539062 86.492188 257.714844 85.996094 264.925781 86.039062 Z M 264.925781 86.035156 " fill-opacity="1" fill-rule="nonzero"/></g><g clip-path="url(#0c76ac7613)"><path stroke-linecap="butt" transform="matrix(0.532815, 0, 0, 0.531874, 28.576054, 67.682309)" fill="none" stroke-linejoin="miter" d="M 472.612034 22.659641 C 424.943596 22.953414 379.012688 37.032475 332.231344 42.658224 C 312.700628 45.008406 292.576072 45.581263 273.023362 43.4 C 247.011732 40.491649 221.835876 32.780114 195.853571 29.320939 C 172.627855 26.236325 149.108884 23.004824 125.73654 22.879971 C 84.893589 22.652297 45.392276 34.726358 5.355773 41.248114 C 5.355773 52.316004 2.980416 66.512574 8.962797 74.290208 C 15.143125 82.310205 25.553642 89.647181 28.258911 100.50943 C 34.66651 126.287991 43.764716 151.552451 55.392237 175.774017 C 61.044708 187.546962 71.711822 195.757911 83.625266 201.405693 C 112.312838 215.022061 146.26432 217.019716 177.737806 212.745322 C 222.554348 206.642193 246.865105 174.885355 265.41342 138.589727 C 272.356209 123.834989 273.133332 106.810856 282.275525 93.326685 C 287.708056 85.321377 300.317978 88.692419 309.328207 88.663042 C 318.345767 88.633665 325.985034 102.793513 328.778278 112.216275 C 338.682932 145.574175 355.185801 180.966451 387.993592 198.445932 C 436.981673 224.547644 514.151463 219.663671 545.940196 172.593927 C 558.381497 154.167029 561.819901 131.818264 568.058879 110.960396 C 571.856519 98.262068 575.250934 83.125425 588.762612 76.140977 C 594.217136 73.320758 590.390171 62.083949 591.189289 55.547505 C 592.069051 48.423515 593.762592 42.129433 583.036827 40.734012 C 564.327222 38.288354 546.182131 30.870591 527.039976 28.358833 C 508.902216 25.979274 491.123693 22.542132 472.612034 22.659641 Z M 157.50328 34.506029 C 171.02962 34.425241 184.504642 35.365314 197.649752 37.987236 C 276.007221 53.645326 277.590793 84.138941 245.332853 147.182581 C 219.049963 198.548752 164.600026 211.423345 109.732203 199.106921 C 84.446377 193.437106 67.151722 176.758156 58.99193 153.924666 C 50.384925 129.820609 43.874686 104.210967 45.348287 78.880408 C 47.320421 44.956996 87.943431 40.190532 117.026896 37.098574 C 130.377285 35.68112 143.962276 34.586816 157.495948 34.506029 Z M 443.587219 34.506029 C 457.120891 34.586816 470.713214 35.68112 484.056271 37.098574 C 513.139737 40.190532 553.762747 44.956996 555.73488 78.880408 C 557.208481 104.210967 550.698243 129.820609 542.091238 153.924666 C 533.931445 176.758156 516.644122 193.437106 491.350964 199.114265 C 436.483141 211.423345 382.040536 198.556097 355.750315 147.182581 C 323.492375 84.138941 325.075946 53.645326 403.433415 37.994581 C 416.585857 35.365314 430.053547 34.432586 443.587219 34.513373 Z M 443.587219 34.506029 " stroke="#000000" stroke-width="1" stroke-opacity="1" stroke-miterlimit="4"/></g><g fill="#000000" fill-opacity="1"><g transform="translate(106.313932, 234.067994)"><g><path d="M 22.722656 -4.738281 C 21.335938 -2.734375 19.371094 -0.617188 14.054688 -0.617188 C 0.578125 -0.617188 0.886719 -23.875 14.054688 -23.875 C 15.328125 -23.875 16.945312 -23.761719 18.175781 -23.335938 C 20.679688 -22.183594 20.257812 -20.910156 20.757812 -19.910156 C 21.179688 -19.101562 21.796875 -18.792969 22.335938 -18.792969 C 23.453125 -18.792969 24.414062 -20.179688 23.183594 -21.644531 C 22.488281 -22.453125 20.332031 -23.761719 19.253906 -23.992188 C 17.753906 -24.53125 16.019531 -24.878906 14.054688 -24.878906 C -3.621094 -24.878906 -3.621094 0.347656 14.054688 0.347656 C 18.714844 0.347656 21.71875 -1.425781 23.914062 -4.003906 C 24.453125 -4.621094 24.03125 -5.238281 23.492188 -5.238281 C 23.261719 -5.238281 22.953125 -5.082031 22.722656 -4.738281 Z M 22.722656 -4.738281 "/></g></g></g><g fill="#000000" fill-opacity="1"><g transform="translate(131.266568, 234.067994)"><g><path d="M 21.140625 -0.65625 C 19.832031 -0.886719 18.714844 -0.539062 18.714844 -2.582031 L 18.714844 -12.824219 C 18.714844 -16.210938 15.710938 -17.945312 12.515625 -17.945312 C 10.050781 -17.945312 7.472656 -16.90625 6.125 -14.75 L 6.125 -27.109375 C 6.125 -27.382812 5.855469 -27.382812 5.660156 -27.265625 C 4.390625 -26.648438 2.851562 -26.1875 1.425781 -25.839844 C 0.808594 -25.648438 1 -25.148438 1.386719 -25.148438 C 3.234375 -25.148438 3.464844 -25.148438 3.464844 -23.105469 L 3.464844 -2.582031 C 3.464844 -0.539062 2.347656 -0.886719 1.078125 -0.65625 C 0.691406 -0.578125 0.691406 0 1.117188 0 L 8.511719 0 C 8.894531 0 8.933594 -0.578125 8.550781 -0.65625 C 7.238281 -0.886719 6.125 -0.539062 6.125 -2.582031 L 6.125 -11.746094 C 6.125 -14.828125 9.089844 -16.484375 11.746094 -16.484375 C 14.019531 -16.484375 16.058594 -15.328125 16.058594 -12.824219 L 16.058594 -2.582031 C 16.058594 -0.539062 14.941406 -0.886719 13.632812 -0.65625 C 13.285156 -0.578125 13.285156 0 13.671875 0 L 21.105469 0 C 21.488281 0 21.488281 -0.578125 21.140625 -0.65625 Z M 21.140625 -0.65625 "/></g></g></g><g fill="#000000" fill-opacity="1"><g transform="translate(153.446692, 234.067994)"><g><path d="M 16.753906 -0.617188 C 16.019531 -0.617188 15.558594 -0.886719 15.558594 -2.464844 C 15.558594 -5.890625 15.558594 -9.703125 15.558594 -13.09375 C 15.558594 -16.289062 12.285156 -17.984375 8.933594 -17.984375 C 7.007812 -17.984375 5.042969 -17.40625 3.660156 -16.25 C 3.503906 -16.136719 3.351562 -16.019531 3.234375 -15.828125 C 3.195312 -15.828125 3.195312 -15.828125 3.15625 -15.789062 C 3.003906 -15.597656 2.851562 -15.402344 2.695312 -15.171875 C 2.464844 -14.902344 2.3125 -14.519531 2.195312 -14.171875 C 2.15625 -14.09375 2.117188 -14.019531 2.078125 -13.941406 C 2.078125 -13.902344 2.078125 -13.902344 2.078125 -13.863281 C 1.964844 -13.515625 1.886719 -13.210938 1.886719 -12.902344 C 1.925781 -11.515625 2.65625 -10.9375 3.390625 -10.9375 C 4.234375 -10.9375 5.082031 -11.785156 4.542969 -13.054688 C 4.082031 -14.09375 3.964844 -15.597656 5.507812 -16.367188 C 6.355469 -16.753906 7.316406 -16.945312 8.316406 -16.945312 C 10.667969 -16.945312 12.941406 -15.789062 12.941406 -13.09375 C 12.941406 -12.054688 12.941406 -11.050781 12.941406 -10.050781 C 12.941406 -9.78125 11.589844 -9.859375 9.78125 -9.742188 C 6.085938 -9.550781 0.808594 -8.625 0.769531 -4.003906 C 0.769531 -1.769531 2.65625 0.347656 6.085938 0.347656 C 9.9375 0.347656 12.054688 -1.617188 12.941406 -3.929688 C 12.941406 -3.3125 12.941406 -2.65625 12.941406 -2.003906 C 12.941406 -0.308594 14.171875 0.191406 15.441406 0.191406 C 15.90625 0.191406 16.367188 0.117188 16.789062 0 C 17.214844 -0.117188 17.136719 -0.617188 16.753906 -0.617188 Z M 6.894531 -0.886719 C 4.96875 -0.886719 3.773438 -2.273438 3.773438 -3.964844 C 3.773438 -8.78125 9.628906 -9.089844 12.941406 -9.089844 C 12.941406 -8.703125 12.941406 -8.316406 12.941406 -7.894531 C 12.824219 -2.3125 9.242188 -0.886719 6.894531 -0.886719 Z M 6.894531 -0.886719 "/></g></g></g><g fill="#000000" fill-opacity="1"><g transform="translate(171.314008, 234.067994)"><g><path d="M 8.742188 -10.476562 C 6.933594 -11.089844 3.734375 -11.707031 3.734375 -14.09375 C 3.734375 -15.519531 5.121094 -16.945312 7.664062 -16.945312 C 9.78125 -16.945312 10.820312 -16.019531 11.246094 -14.402344 C 11.476562 -13.515625 12.054688 -13.171875 12.59375 -13.171875 C 13.671875 -13.171875 14.671875 -14.558594 13.054688 -16.175781 C 11.785156 -17.445312 10.089844 -17.90625 7.664062 -17.945312 C 4.660156 -17.984375 1.5 -16.636719 1.5 -13.132812 C 1.5 -9.320312 5.277344 -8.742188 8.085938 -7.777344 C 9.859375 -7.203125 12.785156 -6.316406 12.785156 -4.121094 C 12.785156 -2.425781 11.089844 -0.691406 8.085938 -0.691406 C 5.007812 -0.691406 2.886719 -1.695312 1.617188 -2.8125 C 1.5 -2.925781 1.347656 -2.964844 1.230469 -2.964844 C 0.847656 -2.964844 0.617188 -2.542969 1 -2.15625 C 2.734375 -0.5 5.351562 0.421875 7.933594 0.421875 C 11.285156 0.421875 15.019531 -0.925781 15.019531 -4.890625 C 15.019531 -8.472656 11.554688 -9.550781 8.742188 -10.476562 Z M 8.742188 -10.476562 "/></g></g></g><g fill="#000000" fill-opacity="1"><g transform="translate(187.101946, 234.067994)"><g><path d="M 32.847656 -0.65625 C 31.539062 -0.886719 30.421875 -0.539062 30.421875 -2.582031 L 30.421875 -12.824219 C 30.421875 -16.175781 27.574219 -17.90625 24.492188 -17.90625 C 21.949219 -17.90625 19.292969 -16.714844 18.023438 -14.289062 C 17.328125 -16.714844 14.863281 -17.945312 12.285156 -17.945312 C 9.9375 -17.945312 7.433594 -16.90625 6.125 -14.75 L 6.125 -17.675781 C 6.125 -17.945312 5.855469 -17.984375 5.660156 -17.867188 C 4.390625 -17.253906 2.851562 -16.789062 1.425781 -16.40625 C 0.808594 -16.25 1 -15.710938 1.386719 -15.710938 C 3.234375 -15.710938 3.464844 -15.75 3.464844 -13.671875 L 3.464844 -2.582031 C 3.464844 -0.539062 2.347656 -0.886719 1.039062 -0.65625 C 0.691406 -0.578125 0.691406 0 1.078125 0 L 8.511719 0 C 8.894531 0 8.894531 -0.578125 8.550781 -0.65625 C 7.238281 -0.886719 6.125 -0.539062 6.125 -2.582031 L 6.125 -11.746094 C 6.125 -14.828125 8.933594 -16.484375 11.515625 -16.484375 C 13.671875 -16.484375 15.636719 -15.328125 15.636719 -12.824219 L 15.636719 -2.582031 C 15.636719 -0.539062 14.519531 -0.886719 13.210938 -0.65625 C 12.824219 -0.578125 12.863281 0 13.246094 0 L 20.640625 0 C 21.066406 0 21.066406 -0.578125 20.679688 -0.65625 C 19.410156 -0.886719 18.253906 -0.539062 18.253906 -2.582031 L 18.253906 -11.785156 C 18.292969 -14.828125 21.105469 -16.484375 23.644531 -16.484375 C 25.800781 -16.484375 27.765625 -15.328125 27.765625 -12.824219 L 27.765625 -2.582031 C 27.765625 -0.539062 26.648438 -0.886719 25.378906 -0.65625 C 24.992188 -0.578125 24.992188 0 25.417969 0 L 32.8125 0 C 33.195312 0 33.234375 -0.578125 32.847656 -0.65625 Z M 32.847656 -0.65625 "/></g></g></g><g fill="#000000" fill-opacity="1"><g transform="translate(221.026767, 234.067994)"><g><path d="M 4.660156 -19.792969 C 5.890625 -19.792969 6.394531 -21.835938 6.394531 -22.683594 C 6.394531 -23.839844 5.507812 -24.414062 4.660156 -24.414062 C 3.773438 -24.414062 2.886719 -23.839844 2.886719 -22.683594 C 2.886719 -21.796875 3.390625 -19.792969 4.660156 -19.792969 Z M 8.550781 -0.65625 C 7.277344 -0.886719 6.125 -0.539062 6.125 -2.582031 L 6.125 -17.675781 C 6.125 -17.945312 5.890625 -17.984375 5.660156 -17.867188 C 4.390625 -17.253906 2.851562 -16.789062 1.464844 -16.40625 C 0.847656 -16.25 1 -15.710938 1.425781 -15.710938 C 3.234375 -15.710938 3.503906 -15.75 3.503906 -13.671875 L 3.503906 -2.582031 C 3.503906 -0.539062 2.386719 -0.886719 1.078125 -0.65625 C 0.691406 -0.578125 0.730469 0 1.117188 0 L 8.511719 0 C 8.933594 0 8.933594 -0.578125 8.550781 -0.65625 Z M 8.550781 -0.65625 "/></g></g></g><g fill="#000000" fill-opacity="1"><g transform="translate(230.653546, 234.067994)"><g><path d="M 8.742188 -10.476562 C 6.933594 -11.089844 3.734375 -11.707031 3.734375 -14.09375 C 3.734375 -15.519531 5.121094 -16.945312 7.664062 -16.945312 C 9.78125 -16.945312 10.820312 -16.019531 11.246094 -14.402344 C 11.476562 -13.515625 12.054688 -13.171875 12.59375 -13.171875 C 13.671875 -13.171875 14.671875 -14.558594 13.054688 -16.175781 C 11.785156 -17.445312 10.089844 -17.90625 7.664062 -17.945312 C 4.660156 -17.984375 1.5 -16.636719 1.5 -13.132812 C 1.5 -9.320312 5.277344 -8.742188 8.085938 -7.777344 C 9.859375 -7.203125 12.785156 -6.316406 12.785156 -4.121094 C 12.785156 -2.425781 11.089844 -0.691406 8.085938 -0.691406 C 5.007812 -0.691406 2.886719 -1.695312 1.617188 -2.8125 C 1.5 -2.925781 1.347656 -2.964844 1.230469 -2.964844 C 0.847656 -2.964844 0.617188 -2.542969 1 -2.15625 C 2.734375 -0.5 5.351562 0.421875 7.933594 0.421875 C 11.285156 0.421875 15.019531 -0.925781 15.019531 -4.890625 C 15.019531 -8.472656 11.554688 -9.550781 8.742188 -10.476562 Z M 8.742188 -10.476562 "/></g></g></g><g fill="#000000" fill-opacity="1"><g transform="translate(246.441484, 234.067994)"><g><path d="M 21.140625 -0.65625 C 19.832031 -0.886719 18.714844 -0.539062 18.714844 -2.582031 L 18.714844 -12.824219 C 18.714844 -16.210938 15.710938 -17.945312 12.515625 -17.945312 C 10.050781 -17.945312 7.472656 -16.90625 6.125 -14.75 L 6.125 -27.109375 C 6.125 -27.382812 5.855469 -27.382812 5.660156 -27.265625 C 4.390625 -26.648438 2.851562 -26.1875 1.425781 -25.839844 C 0.808594 -25.648438 1 -25.148438 1.386719 -25.148438 C 3.234375 -25.148438 3.464844 -25.148438 3.464844 -23.105469 L 3.464844 -2.582031 C 3.464844 -0.539062 2.347656 -0.886719 1.078125 -0.65625 C 0.691406 -0.578125 0.691406 0 1.117188 0 L 8.511719 0 C 8.894531 0 8.933594 -0.578125 8.550781 -0.65625 C 7.238281 -0.886719 6.125 -0.539062 6.125 -2.582031 L 6.125 -11.746094 C 6.125 -14.828125 9.089844 -16.484375 11.746094 -16.484375 C 14.019531 -16.484375 16.058594 -15.328125 16.058594 -12.824219 L 16.058594 -2.582031 C 16.058594 -0.539062 14.941406 -0.886719 13.632812 -0.65625 C 13.285156 -0.578125 13.285156 0 13.671875 0 L 21.105469 0 C 21.488281 0 21.488281 -0.578125 21.140625 -0.65625 Z M 21.140625 -0.65625 "/></g></g></g><g fill="#000000" fill-opacity="1"><g transform="translate(112.045545, 303.269678)"><g><path d="M 25.203125 -12.496094 C 24.042969 -13.929688 22.453125 -14.847656 20.53125 -15.277344 C 20.742188 -15.519531 20.925781 -15.765625 21.109375 -15.976562 C 23.066406 -18.605469 25.875 -23.523438 22.820312 -27.191406 C 20.804688 -29.632812 16.679688 -30.671875 12.527344 -30.0625 C 12.527344 -30.125 12.554688 -30.152344 12.554688 -30.214844 C 12.617188 -30.519531 12.402344 -30.824219 12.066406 -30.886719 C 11.761719 -30.949219 11.457031 -30.734375 11.394531 -30.398438 C 11.363281 -30.214844 11.335938 -30.03125 11.304688 -29.847656 C 10.113281 -29.574219 8.953125 -29.175781 7.820312 -28.625 C 2.8125 -26.183594 0.640625 -21.660156 1.832031 -16.191406 C 1.894531 -15.886719 2.230469 -15.671875 2.535156 -15.765625 C 2.839844 -15.824219 3.054688 -16.132812 2.992188 -16.46875 C 1.894531 -21.324219 3.847656 -25.386719 8.339844 -27.585938 C 9.226562 -28.015625 10.113281 -28.320312 11.058594 -28.566406 C 10.449219 -25.449219 9.5625 -21.050781 8.554688 -16.101562 C 8.125 -13.960938 7.730469 -11.976562 7.332031 -10.113281 C 6.933594 -9.472656 6.628906 -8.769531 6.445312 -8.035156 C 6.292969 -7.453125 6.507812 -7.117188 6.691406 -6.933594 C 2.078125 16.132812 2.320312 17.261719 3.300781 17.566406 C 3.359375 17.597656 3.453125 17.597656 3.511719 17.597656 C 4.09375 17.597656 4.523438 16.832031 5.164062 15.277344 C 5.285156 14.96875 5.132812 14.632812 4.828125 14.511719 C 4.523438 14.390625 4.183594 14.511719 4.0625 14.816406 C 4.03125 14.9375 3.972656 15.03125 3.941406 15.121094 C 4.277344 11.425781 6.078125 2.167969 7.851562 -6.691406 C 10.417969 -6.996094 16.132812 -10.664062 19.613281 -14.238281 C 21.570312 -13.992188 23.15625 -13.167969 24.289062 -11.761719 C 26.394531 -9.132812 26.578125 -4.886719 24.746094 -0.703125 C 21.9375 5.742188 15.519531 9.929688 7.546875 10.507812 C 7.210938 10.539062 6.964844 10.816406 6.996094 11.152344 C 7.027344 11.457031 7.269531 11.699219 7.578125 11.699219 C 7.605469 11.699219 7.605469 11.699219 7.636719 11.699219 C 16.039062 11.089844 22.851562 6.628906 25.847656 -0.246094 C 27.832031 -4.828125 27.585938 -9.53125 25.203125 -12.496094 Z M 8.097656 -7.914062 C 8.21875 -8.523438 8.339844 -9.105469 8.460938 -9.714844 C 10.019531 -12.160156 12.953125 -13.535156 15.550781 -14.054688 C 16.4375 -14.207031 17.261719 -14.296875 18.054688 -14.328125 C 14.574219 -11 9.898438 -8.402344 8.097656 -7.914062 Z M 19.15625 -15.457031 C 17.964844 -15.550781 16.679688 -15.457031 15.304688 -15.183594 C 12.738281 -14.695312 10.539062 -13.59375 8.921875 -12.066406 C 9.195312 -13.382812 9.472656 -14.664062 9.714844 -15.855469 C 10.785156 -21.082031 11.699219 -25.695312 12.3125 -28.839844 C 16.160156 -29.480469 20.101562 -28.625 21.90625 -26.457031 C 23.800781 -24.164062 23.15625 -20.714844 20.164062 -16.679688 C 19.859375 -16.285156 19.523438 -15.855469 19.15625 -15.457031 Z M 19.15625 -15.457031 "/></g></g></g><g fill="#000000" fill-opacity="1"><g transform="translate(141.95247, 303.269678)"><g><path d="M 14.9375 -6.722656 C 14.757812 -6.996094 14.390625 -7.058594 14.113281 -6.875 C 11.488281 -5.164062 8.796875 -3.269531 6.230469 -0.886719 C 6.597656 -3.148438 6.964844 -5.558594 7.300781 -8.097656 C 7.363281 -8.371094 7.179688 -8.644531 6.90625 -8.738281 C 6.660156 -8.828125 6.355469 -8.707031 6.230469 -8.460938 C 5.621094 -7.425781 4.277344 -5.285156 3.085938 -3.847656 C 2.65625 -3.328125 2.230469 -3.054688 2.015625 -3.207031 C 1.496094 -3.511719 1.128906 -5.621094 2.320312 -8.523438 C 2.445312 -8.828125 2.292969 -9.164062 2.015625 -9.289062 C 1.710938 -9.410156 1.375 -9.257812 1.253906 -8.953125 C 0 -5.894531 0.0625 -2.992188 1.4375 -2.199219 C 1.773438 -1.957031 2.75 -1.621094 3.972656 -3.085938 C 4.613281 -3.847656 5.222656 -4.703125 5.773438 -5.53125 C 5.46875 -3.421875 5.164062 -1.40625 4.828125 0.519531 C 2.261719 3.148438 -0.152344 6.324219 -2.230469 10.355469 C -5.714844 17.046875 -6.355469 24.472656 -4.613281 26.609375 C -4.277344 27.039062 -3.847656 27.25 -3.390625 27.25 C -3.238281 27.25 -3.117188 27.222656 -2.964844 27.191406 C -0.976562 26.609375 0.792969 22.210938 1.957031 18.605469 C 3.390625 14.113281 4.703125 8.25 5.925781 1.070312 C 8.769531 -1.773438 11.792969 -3.972656 14.757812 -5.894531 C 15.03125 -6.078125 15.121094 -6.445312 14.9375 -6.722656 Z M 0.824219 18.238281 C -1.375 25.203125 -2.964844 25.96875 -3.269531 26.058594 C -3.390625 26.089844 -3.511719 26.089844 -3.695312 25.875 C -4.796875 24.53125 -4.886719 18.023438 -1.191406 10.875 C 0.519531 7.605469 2.414062 4.917969 4.460938 2.628906 C 3.359375 8.953125 2.136719 14.175781 0.824219 18.238281 Z M 0.824219 18.238281 "/></g></g></g><g fill="#000000" fill-opacity="1"><g transform="translate(155.485422, 303.269678)"><g/></g></g><g fill="#000000" fill-opacity="1"><g transform="translate(164.863789, 303.269678)"><g><path d="M 31.773438 -6.230469 C 31.5 -6.445312 30.519531 -6.539062 25.386719 -6.691406 C 26.03125 -9.316406 26.640625 -11.882812 27.191406 -14.207031 C 27.984375 -17.503906 28.6875 -20.378906 29.085938 -22.117188 C 29.664062 -24.746094 30 -26.671875 30.152344 -28.015625 C 30.277344 -29.390625 30.214844 -30.367188 29.511719 -30.613281 C 28.105469 -31.101562 26.273438 -27.863281 19.707031 -14.878906 C 18.390625 -12.28125 17.015625 -9.59375 15.640625 -6.964844 C 11.242188 -7.085938 7.179688 -7.179688 6.597656 -7.300781 C 6.261719 -7.363281 5.957031 -7.179688 5.894531 -6.84375 C 5.835938 -6.539062 6.050781 -6.230469 6.355469 -6.171875 C 6.996094 -6.019531 10.050781 -5.925781 15.0625 -5.804688 C 12.585938 -1.101562 10.171875 3.175781 8.25 5.773438 C 7.242188 7.148438 6.292969 7.605469 5.4375 7.085938 C 3.175781 5.773438 1.4375 -1.984375 3.789062 -7.269531 C 5.804688 -11.824219 9.683594 -11.671875 12.585938 -10.753906 C 12.890625 -10.664062 13.230469 -10.84375 13.320312 -11.152344 C 13.410156 -11.457031 13.257812 -11.792969 12.921875 -11.882812 C 8.1875 -13.382812 4.550781 -11.914062 2.71875 -7.730469 C 0.398438 -2.535156 1.589844 6.230469 4.859375 8.125 C 5.683594 8.585938 7.332031 9.011719 9.195312 6.476562 C 11.242188 3.726562 13.777344 -0.824219 16.34375 -5.773438 C 16.804688 -5.742188 17.261719 -5.742188 17.71875 -5.742188 C 19.734375 -5.683594 21.90625 -5.621094 23.921875 -5.558594 C 19.1875 14.601562 19.1875 17.261719 20.285156 17.71875 C 20.40625 17.75 20.5 17.78125 20.589844 17.78125 C 21.203125 17.78125 21.722656 17.015625 22.148438 16.285156 C 22.300781 16.007812 22.210938 15.640625 21.9375 15.457031 C 21.660156 15.304688 21.292969 15.398438 21.140625 15.671875 C 21.019531 15.855469 20.925781 16.007812 20.835938 16.132812 C 20.835938 15.03125 21.171875 12.21875 22.699219 5.039062 C 23.433594 1.710938 24.257812 -1.957031 25.113281 -5.53125 C 28.230469 -5.4375 30.703125 -5.347656 31.191406 -5.222656 C 31.253906 -5.195312 31.34375 -5.164062 31.4375 -5.164062 C 31.621094 -5.164062 31.804688 -5.253906 31.894531 -5.40625 C 32.078125 -5.683594 32.015625 -6.050781 31.773438 -6.230469 Z M 17.75 -6.90625 C 17.476562 -6.90625 17.230469 -6.933594 16.957031 -6.933594 C 18.238281 -9.410156 19.523438 -11.914062 20.742188 -14.359375 C 23.828125 -20.4375 27.617188 -27.921875 29.023438 -29.296875 C 29.054688 -28.65625 28.960938 -26.945312 27.921875 -22.363281 C 27.558594 -20.621094 26.855469 -17.78125 26.058594 -14.480469 C 25.386719 -11.671875 24.746094 -9.105469 24.195312 -6.75 C 22.484375 -6.78125 20.347656 -6.84375 17.75 -6.90625 Z M 17.75 -6.90625 "/></g></g></g><g fill="#000000" fill-opacity="1"><g transform="translate(198.405976, 303.269678)"><g><path d="M 13.59375 -6.996094 C 13.351562 -7.210938 12.984375 -7.179688 12.769531 -6.933594 C 10.355469 -4.15625 6.570312 0.273438 5.957031 1.070312 C 5.773438 1.28125 5.589844 1.527344 5.40625 1.773438 C 5.164062 1.160156 4.859375 0.582031 4.460938 -0.03125 C 2.992188 -2.292969 1.679688 -4.429688 1.742188 -5.925781 C 1.800781 -7.117188 2.414062 -8.15625 3.421875 -8.769531 C 4.246094 -9.257812 5.164062 -9.347656 5.867188 -9.011719 C 6.140625 -8.890625 6.507812 -9.011719 6.628906 -9.316406 C 6.78125 -9.59375 6.660156 -9.960938 6.355469 -10.082031 C 5.316406 -10.570312 3.972656 -10.449219 2.8125 -9.777344 C 1.464844 -8.953125 0.671875 -7.578125 0.582031 -5.988281 C 0.488281 -4.125 1.832031 -1.894531 3.484375 0.609375 C 4.003906 1.40625 4.339844 2.167969 4.550781 2.902344 C 2.167969 6.140625 -0.398438 10.296875 0.917969 11.578125 C 1.128906 11.792969 1.40625 11.882812 1.679688 11.882812 C 2.167969 11.882812 2.71875 11.640625 3.300781 11.183594 C 4.949219 9.808594 6.660156 6.691406 5.835938 3.148438 C 6.171875 2.71875 6.507812 2.261719 6.875 1.800781 C 7.484375 1.039062 11.273438 -3.390625 13.65625 -6.171875 C 13.871094 -6.414062 13.839844 -6.78125 13.59375 -6.996094 Z M 3.667969 8.980469 C 2.839844 10.203125 2.015625 10.691406 1.742188 10.722656 C 1.621094 10.296875 2.015625 8.523438 4.859375 4.492188 C 4.980469 6.691406 4.0625 8.371094 3.667969 8.980469 Z M 3.667969 8.980469 "/></g></g></g><g fill="#000000" fill-opacity="1"><g transform="translate(210.717004, 303.269678)"><g><path d="M 17.230469 -6.8125 C 16.988281 -7.027344 16.589844 -6.996094 16.375 -6.75 C 13.929688 -3.878906 12.28125 -3.148438 11.546875 -3.421875 C 10.90625 -3.667969 10.539062 -4.886719 10.570312 -6.8125 C 10.570312 -7.148438 10.601562 -7.972656 9.929688 -8.125 C 9.164062 -8.308594 8.617188 -7.425781 6.996094 -4.03125 C 6.722656 -3.453125 6.476562 -2.933594 6.324219 -2.628906 C 6.140625 -2.292969 6.019531 -2.109375 5.925781 -2.015625 C 5.773438 -2.320312 5.558594 -3.117188 5.589844 -4.308594 C 5.589844 -4.917969 5.589844 -5.4375 5.621094 -5.867188 C 5.652344 -7.210938 5.683594 -7.699219 5.132812 -7.914062 C 4.644531 -8.066406 4.308594 -7.605469 4.214844 -7.453125 C 2.871094 -5.621094 1.679688 -3.757812 0.425781 -1.496094 C 0.917969 -3.605469 1.800781 -6.628906 2.933594 -9.164062 C 3.054688 -9.472656 2.933594 -9.835938 2.628906 -9.960938 C 2.320312 -10.082031 1.984375 -9.960938 1.832031 -9.652344 C 0.976562 -7.667969 0.121094 -5.132812 -0.519531 -2.628906 C -1.527344 1.40625 -1.128906 1.589844 -0.765625 1.773438 C -0.671875 1.800781 -0.582031 1.832031 -0.488281 1.832031 C -0.183594 1.832031 0.0898438 1.621094 0.335938 1.160156 C 1.800781 -1.648438 3.023438 -3.726562 4.429688 -5.773438 C 4.429688 -5.347656 4.398438 -4.859375 4.398438 -4.308594 C 4.398438 -3.359375 4.523438 -1.101562 5.652344 -0.792969 C 6.570312 -0.582031 7.148438 -1.710938 7.363281 -2.078125 C 7.546875 -2.414062 7.789062 -2.933594 8.066406 -3.511719 C 8.402344 -4.214844 8.953125 -5.378906 9.410156 -6.171875 C 9.472656 -4.03125 10.050781 -2.71875 11.152344 -2.320312 C 12.648438 -1.742188 14.695312 -2.992188 17.292969 -5.988281 C 17.503906 -6.230469 17.476562 -6.597656 17.230469 -6.8125 Z M 17.230469 -6.8125 "/></g></g></g><g fill="#000000" fill-opacity="1"><g transform="translate(226.63274, 303.269678)"><g><path d="M 8.921875 -6.933594 C 8.644531 -7.117188 8.308594 -7.027344 8.125 -6.75 C 6.078125 -3.453125 2.65625 -0.335938 1.621094 -0.765625 C 1.496094 -0.824219 0.519531 -1.40625 1.863281 -6.570312 C 1.925781 -6.90625 1.742188 -7.210938 1.4375 -7.300781 C 1.101562 -7.363281 0.792969 -7.179688 0.703125 -6.875 C -0.398438 -2.566406 -0.246094 -0.273438 1.128906 0.304688 C 1.34375 0.398438 1.558594 0.425781 1.773438 0.425781 C 4.0625 0.425781 7.578125 -3.667969 9.132812 -6.140625 C 9.289062 -6.414062 9.195312 -6.78125 8.921875 -6.933594 Z M 1.710938 -9.410156 C 3.269531 -9.316406 3.238281 -11.273438 1.984375 -10.84375 C 1.34375 -10.664062 0.519531 -9.472656 1.710938 -9.410156 Z M 1.710938 -9.410156 "/></g></g></g><g fill="#000000" fill-opacity="1"><g transform="translate(234.3615, 303.269678)"><g><path d="M 25.785156 -18.023438 C 25.386719 -18.574219 23.617188 -18.910156 4.644531 -18.484375 C 5.253906 -20.957031 5.804688 -23.1875 6.292969 -24.992188 C 6.386719 -25.328125 6.203125 -25.632812 5.894531 -25.722656 C 5.589844 -25.816406 5.253906 -25.632812 5.164062 -25.328125 C 4.644531 -23.402344 4.0625 -21.082031 3.421875 -18.453125 C 1.742188 -18.421875 -0.0898438 -18.390625 -2.078125 -18.332031 C -4.796875 -18.269531 -6.933594 -18.207031 -7.761719 -18.207031 C -8.097656 -18.207031 -8.371094 -17.933594 -8.371094 -17.628906 C -8.371094 -17.292969 -8.097656 -17.015625 -7.761719 -17.015625 C -6.90625 -17.046875 -4.765625 -17.078125 -2.046875 -17.167969 C -0.609375 -17.199219 1.160156 -17.230469 3.148438 -17.292969 C 1.832031 -11.730469 0.335938 -5.070312 -1.007812 1.4375 C -1.984375 6.203125 -2.78125 10.328125 -3.300781 13.351562 C -3.574219 14.9375 -3.757812 16.191406 -3.847656 17.046875 C -3.972656 18.207031 -4.03125 18.878906 -3.453125 19.09375 C -3.359375 19.09375 -3.300781 19.125 -3.207031 19.125 C -2.6875 19.125 -2.414062 18.390625 -2.167969 17.71875 C -2.046875 17.414062 -2.199219 17.078125 -2.503906 16.957031 C -2.566406 16.957031 -2.597656 16.925781 -2.65625 16.925781 C -2.351562 14.542969 -1.4375 9.195312 0.335938 0.765625 C 1.648438 -5.621094 3.085938 -12.007812 4.367188 -17.324219 C 12.769531 -17.503906 23.675781 -17.660156 24.929688 -17.230469 C 25.144531 -17.046875 25.417969 -17.046875 25.664062 -17.199219 C 25.90625 -17.382812 25.96875 -17.75 25.785156 -18.023438 Z M 25.785156 -18.023438 "/></g></g></g><g fill="#000000" fill-opacity="1"><g transform="translate(238.424445, 303.269678)"><g><path d="M 14.449219 -6.964844 C 14.175781 -7.148438 13.808594 -7.058594 13.65625 -6.78125 C 9.316406 0.214844 7.789062 0.0625 7.636719 0.03125 C 7.332031 -0.0625 6.996094 -0.671875 6.90625 -2.167969 C 6.875 -2.839844 6.722656 -4.859375 5.378906 -5.039062 C 3.820312 -5.253906 1.957031 -2.535156 0.273438 0.976562 C 1.3125 -3.667969 2.8125 -10.050781 3.910156 -14.574219 C 8.003906 -21.9375 10.082031 -27.464844 9.226562 -28.65625 C 9.042969 -28.933594 8.738281 -29.023438 8.433594 -28.960938 C 7.117188 -28.71875 5.070312 -24.257812 3.695312 -18.605469 C 3.636719 -18.390625 -1.832031 3.941406 -2.015625 6.691406 C -2.015625 6.996094 -1.832031 7.242188 -1.527344 7.300781 C -1.496094 7.300781 -1.464844 7.300781 -1.4375 7.300781 C -1.191406 7.300781 -0.945312 7.148438 -0.855469 6.933594 C 1.800781 -0.703125 4.398438 -3.878906 5.164062 -3.878906 C 5.195312 -3.878906 5.195312 -3.878906 5.195312 -3.878906 C 5.316406 -3.878906 5.652344 -3.511719 5.742188 -2.109375 C 5.773438 -1.375 5.925781 0.792969 7.332031 1.160156 C 7.941406 1.3125 9.746094 1.773438 14.632812 -6.171875 C 14.816406 -6.445312 14.726562 -6.8125 14.449219 -6.964844 Z M 8.21875 -27.28125 C 7.972656 -26.058594 7.117188 -23.433594 5.070312 -19.308594 C 6.230469 -23.707031 7.484375 -26.242188 8.21875 -27.28125 Z M 8.21875 -27.28125 "/></g></g></g><g fill="#000000" fill-opacity="1"><g transform="translate(251.59082, 303.269678)"><g><path d="M 12.769531 -6.78125 C 12.496094 -6.90625 12.128906 -6.78125 12.007812 -6.507812 C 9.683594 -1.773438 7.941406 -0.273438 7.117188 -0.425781 C 6.78125 -0.488281 5.683594 -1.128906 5.40625 -6.476562 C 5.40625 -6.722656 5.222656 -6.933594 5.011719 -6.996094 C 4.765625 -7.058594 4.492188 -6.996094 4.367188 -6.78125 C 4.183594 -6.570312 4.003906 -6.324219 3.820312 -6.050781 C 3.054688 -5.011719 2.046875 -3.605469 0.824219 -2.292969 C 0.640625 -2.078125 0.488281 -1.957031 0.398438 -1.894531 C 0.183594 -2.964844 1.3125 -7.058594 3.117188 -8.339844 C 3.636719 -8.707031 4.339844 -8.980469 5.285156 -7.882812 C 5.5 -7.636719 5.867188 -7.605469 6.109375 -7.820312 C 6.355469 -8.003906 6.386719 -8.402344 6.203125 -8.644531 C 5.039062 -9.988281 3.941406 -9.960938 3.207031 -9.714844 C 0.855469 -8.890625 -0.734375 -4.367188 -0.792969 -2.292969 C -0.824219 -1.4375 -0.582031 -0.886719 -0.0898438 -0.703125 C 0.671875 -0.398438 1.4375 -1.222656 1.679688 -1.496094 C 2.71875 -2.628906 3.667969 -3.847656 4.339844 -4.796875 C 4.675781 -1.3125 5.5 0.425781 6.875 0.734375 C 6.996094 0.734375 7.117188 0.765625 7.242188 0.765625 C 9.316406 0.765625 11.546875 -2.871094 13.046875 -5.988281 C 13.199219 -6.292969 13.074219 -6.628906 12.769531 -6.78125 Z M 12.769531 -6.78125 "/></g></g></g></svg>